<svg width="12" height="12" viewBox="0 0 12 12" fill="none" xmlns="http://www.w3.org/2000/svg">
<path d="M1.10035 1.96777C0.86088 1.7283 0.860873 1.34005 1.10034 1.10057C1.3398 0.8611 1.72806 0.861094 1.96753 1.10056L10.8998 10.0325C11.1393 10.272 11.1393 10.6602 10.8998 10.8997C10.6604 11.1392 10.2721 11.1392 10.0326 10.8997L1.10035 1.96777Z" fill="#545454" stroke="#545454" stroke-width="0.5"/>
<path d="M1.1006 10.8999C0.861124 10.6604 0.861117 10.2722 1.10058 10.0327L10.0325 1.10043C10.272 0.860955 10.6603 0.860949 10.8997 1.10041C11.1392 1.33988 11.1392 1.72814 10.8998 1.96761L1.96779 10.8999C1.72833 11.1394 1.34007 11.1394 1.1006 10.8999Z" fill="#545454" stroke="#545454" stroke-width="0.5"/>
</svg>
